<svg xmlns="http://www.w3.org/2000/svg" xmlns:xlink="http://www.w3.org/1999/xlink" width="522" height="2088" viewBox="0 0 522 2088"><svg width="522" height="522" viewBox="-5 -5 83.92 83.92" id="alg" y="0"><path d="M36.96 0C16.576 0 0 16.576 0 36.96s16.576 36.96 36.96 36.96 36.96-16.576 36.96-36.96S57.344 0 36.96 0zM21.952 53.76h-4.48v-22.4h4.48v22.4zm0-24.64h-4.48v-4.479h4.48v4.479zM30.688 56h-4.48V33.601h4.48V56zm0-24.642h-4.48V26.88h4.48v4.478zM39.2 49.28h-4.48v-22.4h4.48v22.4zm0-24.638h-4.48v-4.48h4.48v4.48zm8.512 22.398h-4.479V24.642h4.479V47.04zm0-24.641h-4.479V17.92h4.479v4.479zm8.736 31.361h-4.48v-22.4h4.48v22.4zm0-24.64h-4.48v-4.479h4.48v4.479z" fill="#D80027"></path></svg><svg width="522" height="522" viewBox="-854.9 868.7 307.4 347.3" id="css" y="522"><path fill="#1572B6" class="st10" d="M-822.9 1177.3L-850 873.7h297.5l-27.1 303.6-121.8 33.8-121.5-33.8z"></path><path fill="#33A9DC" class="st11" d="M-701.2 1185.2l98.4-27.3 23.2-259.4h-121.6v286.7z"></path><g transform="translate(55 142)"><path fill="#FFF" class="st12" d="M-756.2 866.5h49.3l3.4-38.1h-52.7v-37.2h93.3l-.9 10-9.2 102.6h-83.3v-37.3z"></path><path fill="#EBEBEB" class="st13" d="M-756 963.2h-.2l-41.5-11.2-2.7-29.7h-37.4l5.2 58.5 76.3 21.2h.2v-38.8z"></path><path fill="#FFF" class="st12" d="M-710.1 902.2l-4.5 49.9-41.5 11.2v38.7l76.3-21.2.6-6.3 6.5-72.4h-37.4z"></path><path fill="#EBEBEB" class="st13" d="M-756.1 791.1v37.2H-846l-.7-8.4-1.7-18.9-.9-10h93.2zM-756.2 866.5v37.2h-40.9l-.7-8.4-1.7-18.9-.9-10h44.2z"></path></g></svg><svg viewBox="-5 -5 522 522" width="522" height="522" id="html" y="1044"><path fill="#E34F26" d="M71 460L30 0h451l-41 460-185 52"></path><path fill="#EF652A" d="M256 472l149-41 35-394H256"></path><path fill="#EBEBEB" d="M256 208h-75l-5-58h80V94H114l1 15 14 156h127zm0 147h-1l-63-17-4-45h-56l7 89 116 32h1z"></path><path fill="#FFF" d="M255 208v57h70l-7 73-63 17v59l116-32 1-10 13-149 2-15h-16zm0-114v56h137l1-12 3-29 1-15z"></path></svg><svg width="522" height="522" viewBox="-855 868 308 348" id="js" y="1566"><path fill="#63A814" d="M-823 1177l-27-304h298l-27 304-122 34-122-34z"></path><path fill="#8ACF17" d="M-701 1184.8l98.5-27.3 23.2-259.5H-701v286.8z"></path><path fill="#FFF" d="M-794.5 936l3.3 37h142.4l-10.7 123.9-41.6 11.2-41.5-11.2-2.7-29.9h-37.5l5.2 58.7 76.4 21.3 76.6-21.3 17-189.7h-186.9z"></path><path fill="#EBEBEB" d="M-701.1 1108.1l-41.5-11.2-2.7-29.9h-37.5l5.2 58.7 76.6 21.3-.1-38.9zM-791.2 973h90.2v-37h-93.5l3.3 37z"></path></svg></svg>