<svg id="Layer_1" xmlns="http://www.w3.org/2000/svg" viewBox="-710 798.4 10 10"><style>.st0{fill:#010101}</style><path id="XMLID_8_" class="st0" d="M-700.8 802.9l-1.9 1.9c-1 1-2.7 1-3.8 0-.2-.2-.3-.3-.4-.5l.9-.9.1-.1.3.6c.5.5 1.4.5 1.9 0l1.9-1.9c.5-.5.5-1.4 0-1.9s-1.4-.5-1.9 0l-.7.7c-.5-.2-1.1-.3-1.7-.2l1.4-1.4c1-1 2.7-1 3.8 0 1.2 1 1.2 2.7.1 3.7zm-4.9 3.1l-.7.7c-.5.5-1.4.5-1.9 0s-.5-1.4 0-1.9l1.9-1.9c.5-.5 1.4-.5 1.9 0 .2.2.3.4.3.6l.1-.1.9-.9c-.1-.2-.2-.4-.4-.5-1-1-2.7-1-3.8 0l-1.9 1.9c-1 1-1 2.7 0 3.8 1 1 2.7 1 3.8 0l1.4-1.4c-.5 0-1.1-.1-1.6-.3z"/></svg>