<svg xmlns="http://www.w3.org/2000/svg" xmlns:xlink="http://www.w3.org/1999/xlink" width="532" height="2660" viewBox="0 0 532 2660"><svg width="532" height="532" viewBox="-10 -10 93.92 93.92" id="alg" y="0"><path d="M36.96 0C16.576 0 0 16.576 0 36.96s16.576 36.96 36.96 36.96 36.96-16.576 36.96-36.96S57.344 0 36.96 0zM21.952 53.76h-4.48v-22.4h4.48v22.4zm0-24.64h-4.48v-4.479h4.48v4.479zM30.688 56h-4.48V33.601h4.48V56zm0-24.642h-4.48V26.88h4.48v4.478zM39.2 49.28h-4.48v-22.4h4.48v22.4zm0-24.638h-4.48v-4.48h4.48v4.48zm8.512 22.398h-4.479V24.642h4.479V47.04zm0-24.641h-4.479V17.92h4.479v4.479zm8.736 31.361h-4.48v-22.4h4.48v22.4zm0-24.64h-4.48v-4.479h4.48v4.479z" fill="#D80027"></path></svg><svg viewBox="-10 -10 275.642 275.642" width="532" height="532" id="ansi-c" y="532"><path d="M75.067 2.72a5 5 0 0 0-3.389 1.461l-15 15a5 5 0 1 0 7.072 7.07l6.463-6.463v42.928h-10a5.001 5.001 0 1 0-.001 10h14.182c.535.088 1.08.088 1.615 0h9.203a5.001 5.001 0 1 0 .001-10h-5v-55a5 5 0 0 0-5.146-4.996zm55.143 0a5 5 0 0 0-3.389 1.461l-15 15a5 5 0 1 0 7.07 7.07l6.465-6.465v42.93h-10a5.001 5.001 0 1 0-.001 10h14.182a5.01 5.01 0 0 0 1.621 0h9.197a5.001 5.001 0 1 0 .001-10h-5v-55a5 5 0 0 0-5.146-4.996zm-112.639.034c-9.609 0-17.5 7.891-17.5 17.5v35c0 9.609 7.891 17.5 17.5 17.5s17.5-7.891 17.5-17.5v-35c0-9.609-7.891-17.5-17.5-17.5zm165.428 0c-9.609 0-17.5 7.891-17.5 17.5v35c0 9.609 7.891 17.5 17.5 17.5s17.5-7.891 17.5-17.5v-35c0-9.609-7.892-17.5-17.5-17.5zm55.143 0c-9.609 0-17.5 7.891-17.5 17.5v35c0 9.609 7.891 17.5 17.5 17.5s17.5-7.891 17.5-17.5v-35c0-9.609-7.892-17.5-17.5-17.5zm-220.571 10c4.241 0 7.5 3.259 7.5 7.5v35c0 4.241-3.259 7.5-7.5 7.5s-7.5-3.259-7.5-7.5v-35c0-4.242 3.259-7.5 7.5-7.5zm165.428 0c4.241 0 7.5 3.259 7.5 7.5v35c0 4.241-3.259 7.5-7.5 7.5s-7.5-3.259-7.5-7.5v-35c0-4.242 3.258-7.5 7.5-7.5zm55.143 0c4.241 0 7.5 3.259 7.5 7.5v35c0 4.241-3.259 7.5-7.5 7.5s-7.5-3.259-7.5-7.5v-35c0-4.242 3.258-7.5 7.5-7.5zM19.925 92.791a5 5 0 0 0-3.389 1.461l-15 15a5 5 0 0 0 7.072 7.072l6.463-6.463v42.928h-10a5.001 5.001 0 1 0-.001 10h14.182a5.01 5.01 0 0 0 1.621 0h9.197a5.001 5.001 0 1 0 .001-10h-5v-55a5 5 0 0 0-5.001-5c-.048 0-.097 0-.145.002zm110.285 0a5 5 0 0 0-3.389 1.461l-15 15a5 5 0 1 0 7.07 7.072l6.465-6.465v42.93h-10a5.001 5.001 0 1 0-.001 10h14.182a5.01 5.01 0 0 0 1.621 0h9.197a5.001 5.001 0 1 0 .001-10h-5v-55a5 5 0 0 0-5.001-5c-.048 0-.097 0-.145.002zm55.142 0a5 5 0 0 0-3.389 1.461l-15 15a5 5 0 1 0 7.07 7.072l6.465-6.465v42.93h-10a5.001 5.001 0 1 0-.001 10h14.182a5.01 5.01 0 0 0 1.621 0h9.197a5.001 5.001 0 1 0 .001-10h-5v-55a5 5 0 0 0-5.001-5c-.047 0-.096 0-.145.002zm-112.638.033c-9.609 0-17.5 7.891-17.5 17.5v35c0 9.609 7.891 17.5 17.5 17.5s17.5-7.891 17.5-17.5v-35c0-9.609-7.892-17.5-17.5-17.5zm165.428 0c-9.609 0-17.5 7.891-17.5 17.5v35c0 9.609 7.891 17.5 17.5 17.5s17.5-7.891 17.5-17.5v-35c0-9.609-7.892-17.5-17.5-17.5zm-165.428 10c4.241 0 7.5 3.259 7.5 7.5v35c0 4.241-3.259 7.5-7.5 7.5s-7.5-3.259-7.5-7.5v-35c0-4.242 3.258-7.5 7.5-7.5zm165.428 0c4.241 0 7.5 3.259 7.5 7.5v35c0 4.241-3.259 7.5-7.5 7.5s-7.5-3.259-7.5-7.5v-35c0-4.242 3.258-7.5 7.5-7.5zM19.925 182.861a5 5 0 0 0-3.389 1.461l-15 15a5 5 0 1 0 7.072 7.072l6.463-6.463v42.926h-10a5.001 5.001 0 1 0-.001 10h14.182a5.01 5.01 0 0 0 1.621 0h9.197a5.001 5.001 0 1 0 .001-10h-5v-55a5 5 0 0 0-5.003-4.998l-.143.002zm55.142 0a5 5 0 0 0-3.389 1.461l-15 15a5 5 0 1 0 7.072 7.072l6.463-6.463v42.926h-10a5.001 5.001 0 1 0-.001 10h14.182c.535.088 1.08.088 1.615 0h9.203a5.001 5.001 0 1 0 .001-10h-5v-55a5 5 0 0 0-5.003-4.998l-.143.002zm55.143 0a5 5 0 0 0-3.389 1.461l-15 15a5 5 0 1 0 7.07 7.072l6.465-6.465v42.928h-10a5.001 5.001 0 1 0-.001 10h14.182a5.01 5.01 0 0 0 1.621 0h9.197a5.001 5.001 0 1 0 .001-10h-5v-55a5 5 0 0 0-5.003-4.998l-.143.002zm55.142 0a5 5 0 0 0-3.389 1.461l-15 15a5 5 0 1 0 7.07 7.072l6.465-6.465v42.928h-10a5.001 5.001 0 1 0-.001 10h14.182a5.01 5.01 0 0 0 1.621 0h9.197a5.001 5.001 0 1 0 .001-10h-5v-55a5 5 0 0 0-5.003-4.998l-.143.002zm52.79.033c-9.609 0-17.5 7.891-17.5 17.5v35c0 9.609 7.891 17.5 17.5 17.5s17.5-7.891 17.5-17.5v-35c0-9.608-7.892-17.5-17.5-17.5zm0 10c4.241 0 7.5 3.259 7.5 7.5v35c0 4.241-3.259 7.5-7.5 7.5s-7.5-3.259-7.5-7.5v-35c0-4.241 3.258-7.5 7.5-7.5z" fill="#e6e6e6"></path><path d="M148.459 13.234c-31.551 0-58.408 11.306-80.57 33.916-22.272 22.5-33.407 49.71-33.407 81.631 0 32.032 11.135 59.297 33.407 81.797 22.162 22.61 49.019 33.916 80.57 33.916 27.512 0 51.86-8.978 73.039-26.933l-30.46-30.924c-12.556 9.643-26.749 14.465-42.579 14.465-19.76 0-36.572-7.037-50.438-21.114-13.865-14.076-20.796-31.145-20.796-51.207 0-19.95 6.931-36.964 20.796-51.04 13.866-14.077 30.677-21.114 50.438-21.114 15.83 0 30.078 4.82 42.742 14.463l30.297-30.924c-21.07-17.956-45.418-26.932-73.039-26.932z" style="line-height:125%" font-weight="400" font-size="337.927" font-family="sans-serif" letter-spacing="0" word-spacing="0" fill="purple"></path></svg><svg width="532" height="532" viewBox="-859.9 863.7 317.4 357.3" id="css" y="1064"><path fill="#1572B6" class="st10" d="M-822.9 1177.3L-850 873.7h297.5l-27.1 303.6-121.8 33.8-121.5-33.8z"></path><path fill="#33A9DC" class="st11" d="M-701.2 1185.2l98.4-27.3 23.2-259.4h-121.6v286.7z"></path><g transform="translate(55 142)"><path fill="#FFF" class="st12" d="M-756.2 866.5h49.3l3.4-38.1h-52.7v-37.2h93.3l-.9 10-9.2 102.6h-83.3v-37.3z"></path><path fill="#EBEBEB" class="st13" d="M-756 963.2h-.2l-41.5-11.2-2.7-29.7h-37.4l5.2 58.5 76.3 21.2h.2v-38.8z"></path><path fill="#FFF" class="st12" d="M-710.1 902.2l-4.5 49.9-41.5 11.2v38.7l76.3-21.2.6-6.3 6.5-72.4h-37.4z"></path><path fill="#EBEBEB" class="st13" d="M-756.1 791.1v37.2H-846l-.7-8.4-1.7-18.9-.9-10h93.2zM-756.2 866.5v37.2h-40.9l-.7-8.4-1.7-18.9-.9-10h44.2z"></path></g></svg><svg viewBox="-10 -10 532 532" width="532" height="532" id="html" y="1596"><path fill="#E34F26" d="M71 460L30 0h451l-41 460-185 52"></path><path fill="#EF652A" d="M256 472l149-41 35-394H256"></path><path fill="#EBEBEB" d="M256 208h-75l-5-58h80V94H114l1 15 14 156h127zm0 147h-1l-63-17-4-45h-56l7 89 116 32h1z"></path><path fill="#FFF" d="M255 208v57h70l-7 73-63 17v59l116-32 1-10 13-149 2-15h-16zm0-114v56h137l1-12 3-29 1-15z"></path></svg><svg width="532" height="532" viewBox="-860 863 318 358" id="js" y="2128"><path fill="#63A814" d="M-823 1177l-27-304h298l-27 304-122 34-122-34z"></path><path fill="#8ACF17" d="M-701 1184.8l98.5-27.3 23.2-259.5H-701v286.8z"></path><path fill="#FFF" d="M-794.5 936l3.3 37h142.4l-10.7 123.9-41.6 11.2-41.5-11.2-2.7-29.9h-37.5l5.2 58.7 76.4 21.3 76.6-21.3 17-189.7h-186.9z"></path><path fill="#EBEBEB" d="M-701.1 1108.1l-41.5-11.2-2.7-29.9h-37.5l5.2 58.7 76.6 21.3-.1-38.9zM-791.2 973h90.2v-37h-93.5l3.3 37z"></path></svg></svg>