<?xml version="1.0" encoding="utf-8"?>
<!-- Generator: Adobe Illustrator 19.0.0, SVG Export Plug-In . SVG Version: 6.00 Build 0)  -->
<svg version="1.1" id="Camada_1" xmlns:sketch="http://www.bohemiancoding.com/sketch/ns"
	 xmlns="http://www.w3.org/2000/svg" xmlns:xlink="http://www.w3.org/1999/xlink" x="0px" y="0px"
	 width="512px" height="512px" viewBox="-849.9 873.7 297.4 337.3" style="enable-background:new -849.9 873.7 297.4 337.3;" xml:space="preserve">

<g id="Page_1">
	<g id="Layer_1">
		<path fill="#1572B6" id="Shape_1_" class="st10" d="M-822.9,1177.3l-27.1-303.6h297.5l-27.1,303.6l-121.8,33.8L-822.9,1177.3z"/>
		<path fill="#33A9DC" id="Shape_2_" class="st11" d="M-701.2,1185.2l98.4-27.3l23.2-259.4h-121.6V1185.2z"/>
		<g id="Group" transform="translate(55.000000, 142.000000)">
			<path fill="#FFFFFF" id="Shape_3_" class="st12" d="M-756.2,866.5h49.3l3.4-38.1h-52.7v-37.2h0.1h93.2l-0.9,10l-9.2,102.6h-83.3V866.5z"/>
			<path fill="#EBEBEB" id="Shape_4_" class="st13" d="M-756,963.2l-0.2,0l-41.5-11.2l-2.7-29.7h-20.2h-17.2l5.2,58.5l76.3,21.2l0.2,0V963.2z"/>
			<path fill="#FFFFFF" id="Shape_5_" class="st12" d="M-710.1,902.2l-4.5,49.9l-41.5,11.2v38.7l76.3-21.2l0.6-6.3l6.5-72.4H-710.1z"/>
			<path fill="#EBEBEB" id="Shape_6_" class="st13" d="M-756.1,791.1v23.1v14v0.1h-89.8h-0.1l-0.7-8.4l-1.7-18.9l-0.9-10H-756.1z"/>
			<path fill="#EBEBEB" id="Shape_7_" class="st13" d="M-756.2,866.5v23.1v14v0.1H-797h-0.1l-0.7-8.4l-1.7-18.9l-0.9-10H-756.2z"/>
		</g>
	</g>
</g>
</svg>
