<?xml version="1.0" encoding="utf-8"?>
<!-- Generator: Adobe Illustrator 19.0.0, SVG Export Plug-In . SVG Version: 6.00 Build 0)  -->
<svg version="1.1" id="Camada_1" xmlns="http://www.w3.org/2000/svg" xmlns:xlink="http://www.w3.org/1999/xlink" x="0px" y="0px"
	 width="512px" height="512px" viewBox="-850 873 298 338" style="enable-background:new -850 873 298 338;" xml:space="preserve">
<path fill="#63A814" d="M-823,1177l-27-304h298l-27,304l-122,34L-823,1177z"/>
<path fill="#8ACF17" d="M-701,1184.8l98.5-27.3l23.2-259.5H-701V1184.8z"/>
<path fill="#FFFFFF" d="M-794.5,936l3.3,37h142.4l-10.7,123.9l-41.6,11.2l-41.5-11.2l-2.7-29.9h-37.5l5.2,58.7l76.4,21.3
	l76.6-21.3l17-189.7H-794.5z"/>
<path fill="#EBEBEB" d="M-701.1,1108.1l-41.5-11.2l-2.7-29.9h-37.5l5.2,58.7l76.6,21.3L-701.1,1108.1z M-791.2,973h90.2v-37h-93.5
	L-791.2,973z"/>
</svg>
