<?xml version="1.0" encoding="utf-8"?>
<!-- Generator: Adobe Illustrator 19.0.0, SVG Export Plug-In . SVG Version: 6.00 Build 0)  -->
<svg version="1.1" id="Layer_1" xmlns="http://www.w3.org/2000/svg" xmlns:xlink="http://www.w3.org/1999/xlink" x="0px" y="0px"
	 viewBox="-710 798.4 10 10" style="enable-background:new -710 798.4 10 10;" xml:space="preserve">
<style type="text/css">
	.st0{fill:#010101;}
</style>
<path id="XMLID_8_" class="st0" d="M-700.8,802.9l-1.9,1.9c-1,1-2.7,1-3.8,0c-0.2-0.2-0.3-0.3-0.4-0.5l0.9-0.9c0,0,0.1-0.1,0.1-0.1
	c0.1,0.2,0.2,0.4,0.3,0.6c0.5,0.5,1.4,0.5,1.9,0l1.9-1.9c0.5-0.5,0.5-1.4,0-1.9c-0.5-0.5-1.4-0.5-1.9,0l-0.7,0.7
	c-0.5-0.2-1.1-0.3-1.7-0.2l1.4-1.4c1-1,2.7-1,3.8,0C-699.7,800.2-699.7,801.9-700.8,802.9z M-705.7,806l-0.7,0.7
	c-0.5,0.5-1.4,0.5-1.9,0c-0.5-0.5-0.5-1.4,0-1.9l1.9-1.9c0.5-0.5,1.4-0.5,1.9,0c0.2,0.2,0.3,0.4,0.3,0.6c0,0,0.1-0.1,0.1-0.1
	l0.9-0.9c-0.1-0.2-0.2-0.4-0.4-0.5c-1-1-2.7-1-3.8,0l-1.9,1.9c-1,1-1,2.7,0,3.8c1,1,2.7,1,3.8,0l1.4-1.4
	C-704.6,806.3-705.2,806.2-705.7,806z"/>
</svg>
